Coordinates
nRows=8
nColumns=34

# SIMM Motion File Header:
name Coordinates
datacolumns 34
datarows 8
otherdata 1
range 0.58799999999999997000 0.59499999999999997000

Units are S.I. units (second, meters, Newtons, ...)
Angles are in degrees.

endheader
time	pelvis_tz	pelvis_tx	pelvis_ty	pelvis_tilt	pelvis_list	pelvis_rotation	hip_flexion_r	hip_adduction_r	hip_rotation_r	knee_r_tx	knee_r_ty	knee_angle_r	tib_pat_r_tx	tib_pat_r_ty	tib_pat_r_r1	ankle_angle_r	subtalar_angle_r	mtp_angle_r	hip_flexion_l	hip_adduction_l	hip_rotation_l	knee_l_tx	knee_l_ty	knee_angle_l	tib_pat_l_tx	tib_pat_l_ty	tib_pat_l_r1	ankle_angle_l	subtalar_angle_l	mtp_angle_l	lumbar_extension	lumbar_bending	lumbar_rotation
      0.58799999999999997000	     -0.26889765288204093000	      0.43139671291544451000	      0.88675172968247595000	     -0.65106202343513075000	      0.90027824481439289000	     -3.79480044324396500000	    -13.62737450125057300000	      2.11175290018523930000	     16.25209766931979200000	     -0.00158394627773056370	     -0.41469587406726549000	    -17.55123925374696000000	      0.04422203074966504100	     -0.02057098462468716400	     12.84221348088039100000	     20.70745378640060600000	     -0.00000000000001874137	      0.00000000000009303821	     22.47329796580037700000	      1.72899456725708790000	      9.41390041447037620000	     -0.00382281076965073970	     -0.41365056824513624000	     -6.69108705476228940000	      0.04579448401519371100	     -0.02102891224708776000	      6.72085743555564810000	     -5.08556089403271190000	     -0.00000000000020185734	     -0.00000000000006591532	     -6.04795768889778970000	      2.24224551077835480000	      4.70075178580776050000
      0.58899999999999997000	     -0.26900606100792668000	      0.43265081034906405000	      0.88673524976062423000	     -0.65696637134085656000	      0.95675728107431812000	     -3.77338879384175870000	    -13.61659144675281000000	      2.06654913012626330000	     16.18970516790207600000	     -0.00154648735214236430	     -0.41471469272261835000	    -17.71761472406609900000	      0.04419910896875234300	     -0.02056539588541688200	     12.89979167721989500000	     20.59207421134048500000	     -0.00000000000001863254	      0.00000000000009354358	     22.47033656203527800000	      1.81183367453614920000	      9.41510026949412550000	     -0.00380338681320722700	     -0.41366072114906749000	     -6.81098627490434880000	      0.04577639957390864500	     -0.02102289709281722800	      6.81800072844820090000	     -5.12641481295029780000	     -0.00000000000020362884	     -0.00000000000006561788	     -6.01651301087111000000	      2.16272072994301290000	      4.70245704965548410000
      0.58999999999999997000	     -0.26911446913381248000	      0.43390490778268365000	      0.88671876983877251000	     -0.66287071924658247000	      1.01323631733424340000	     -3.75197714443955240000	    -13.60580839225504800000	      2.02134536006728680000	     16.12731266648435700000	     -0.00150902842655416480	     -0.41473351137797121000	    -17.88399019438523400000	      0.04417618718783964500	     -0.02055980714614660100	     12.95736987355939900000	     20.47669463628036400000	     -0.00000000000001852371	      0.00000000000009404895	     22.46737515827018000000	      1.89467278181521070000	      9.41630012451787480000	     -0.00378396285676371480	     -0.41367087405299868000	     -6.93088549504640740000	      0.04575831513262358000	     -0.02101688193854669600	      6.91514402134075380000	     -5.16726873186788450000	     -0.00000000000020540034	     -0.00000000000006532044	     -5.98506833284442940000	      2.08319594910767100000	      4.70416231350320760000
      0.59099999999999997000	     -0.26922619043114537000	      0.43516400321708687000	      0.88670991426246770000	     -0.66905866657654078000	      1.06994888978905570000	     -3.72904844830776170000	    -13.59293036442305600000	      1.97576674448519070000	     16.06243499312697400000	     -0.00147113604909855540	     -0.41475287014738893000	    -18.05311801171404100000	      0.04415275407282044700	     -0.02055413281471527000	     13.01418146384201100000	     20.34832587616034500000	     -0.00000000000001840973	      0.00000000000009469437	     22.46347917987375800000	      1.97834398236577820000	      9.41805389341214470000	     -0.00376423453795996780	     -0.41368109218926308000	     -7.05094145943498950000	      0.04574001069434408700	     -0.02101081474047427800	      7.01088991102432150000	     -5.20611995402095040000	     -0.00000000000020714071	     -0.00000000000006502702	     -5.95269627912199080000	      2.00356671532313730000	      4.70454774472027460000
      0.59199999999999997000	     -0.26933838503868496000	      0.43642381265160202000	      0.88670214787838397000	     -0.67528712810996117000	      1.12669482455742310000	     -3.70590303121460170000	    -13.57975305468617200000	      1.93013457954264830000	     15.99720229520677600000	     -0.00143318174994760140	     -0.41477230607595883000	    -18.22263902147279800000	      0.04412924791007175100	     -0.02054844625583236400	     13.07088353897363600000	     20.21810151817462400000	     -0.00000000000001829500	      0.00000000000009535981	     22.45944969081572400000	      2.06213405338370450000	      9.41988679285934790000	     -0.00374446273881904460	     -0.41369131964443223000	     -7.17101981585878880000	      0.04572167482792253300	     -0.02100474010757301700	      7.10643617167803310000	     -5.24468507663622760000	     -0.00000000000020887664	     -0.00000000000006473418	     -5.92019174315730100000	      1.92392255968871930000	      4.70474462841867690000
      0.59299999999999997000	     -0.26945248466723842000	      0.43768669671502958000	      0.88669918042860707000	     -0.68152321506353442000	      1.18360030948209020000	     -3.68193373914757730000	    -13.56544278194432700000	      1.88419761968872980000	     15.93052588114143800000	     -0.00139499601660037440	     -0.41479208623023306000	    -18.39384295417616100000	      0.04410540809274634400	     -0.02054270171480791800	     13.12707252463567400000	     20.08104343379972800000	     -0.00000000000001819111	      0.00000000000009606096	     22.45455698598517500000	      2.14638862652992790000	      9.42191954719304900000	     -0.00372454577726316840	     -0.41370156439449546000	     -7.29092505910049220000	      0.04570326524358088400	     -0.02099865498085269600	      7.20091476574085300000	     -5.28100899732826520000	     -0.00000000000021056626	     -0.00000000000006448851	     -5.88732836034089240000	      1.84417957462673550000	      4.70420436521893850000
      0.59399999999999997000	     -0.26956848931680572000	      0.43895265540736955000	      0.88670101191313722000	     -0.68776692743726076000	      1.24066534456305690000	     -3.65714057210668920000	    -13.54999954619751500000	      1.83795586492343440000	     15.86240575093096100000	     -0.00135657884905687470	     -0.41481221061021167000	    -18.56672980982412500000	      0.04408123462084423400	     -0.02053689919164193200	     13.18274842082812100000	     19.93715162303566000000	     -0.00000000000001809804	      0.00000000000009679782	     22.44880106538211400000	      2.23110770180444850000	      9.42415215641324800000	     -0.00370448365329233840	     -0.41371182643945281000	     -7.41065718916010050000	      0.04568478194131914100	     -0.02099255936031331500	      7.29432569321278020000	     -5.31509171609706050000	     -0.00000000000021220957	     -0.00000000000006429002	     -5.85410613067276400000	      1.76433776013718610000	      4.70292695512106020000
      0.59499999999999997000	     -0.26968449396637301000	      0.44021861409970953000	      0.88670284339766725000	     -0.69401063981098710000	      1.29773037964402380000	     -3.63234740506580020000	    -13.53455631045070500000	      1.79171411015813910000	     15.79428562072048300000	     -0.00131816168151337480	     -0.41483233499019023000	    -18.73961666547209100000	      0.04405706114894212400	     -0.02053109666847595000	     13.23842431702056600000	     19.79325981227158900000	     -0.00000000000001800498	      0.00000000000009753468	     22.44304514477905200000	      2.31582677707896960000	      9.42638476563344870000	     -0.00368442152932150870	     -0.41372208848441017000	     -7.53038931921970890000	      0.04566629863905740500	     -0.02098646373977393300	      7.38773662068470660000	     -5.34917443486585590000	     -0.00000000000021385289	     -0.00000000000006409152	     -5.82088390100463650000	      1.68449594564763670000	      4.70164954502318100000
